<svg width="44" height="44" viewBox="0 0 44 44" fill="none" xmlns="http://www.w3.org/2000/svg">
<circle cx="22" cy="22" r="19.5" stroke="#D9D9D9" stroke-width="3"/>
<path d="M42 22C42 17.1237 40.2185 12.4155 36.9906 8.76057C33.7626 5.10568 29.3106 2.75598 24.4718 2.15333C19.6329 1.55068 14.7405 2.73661 10.7147 5.4881C6.68892 8.2396 3.80702 12.3671 2.61096 17.0944C1.41491 21.8217 1.98711 26.8231 4.21997 31.1581C6.45282 35.4931 10.1925 38.863 14.7357 40.6341C19.279 42.4052 24.3127 42.4555 28.8905 40.7756C33.4682 39.0956 37.2745 35.8011 39.5935 31.5115" stroke="#081761" stroke-width="3" stroke-linecap="round"/>
<path d="M16.9462 15.6094H17.0712V16.8359H16.9462C16.1806 16.8359 15.54 16.9609 15.0244 17.2109C14.5087 17.4557 14.0999 17.7865 13.7978 18.2031C13.4957 18.6146 13.277 19.0781 13.1416 19.5938C13.0114 20.1094 12.9462 20.6328 12.9462 21.1641V22.8359C12.9462 23.3411 13.0061 23.7891 13.1259 24.1797C13.2457 24.5651 13.4098 24.8906 13.6181 25.1562C13.8265 25.4219 14.0608 25.6224 14.3212 25.7578C14.5869 25.8932 14.8629 25.9609 15.1494 25.9609C15.4827 25.9609 15.7796 25.8984 16.04 25.7734C16.3004 25.6432 16.5192 25.4635 16.6962 25.2344C16.8785 25 17.0166 24.724 17.1103 24.4062C17.2041 24.0885 17.2509 23.7396 17.2509 23.3594C17.2509 23.0208 17.2093 22.6953 17.1259 22.3828C17.0426 22.0651 16.915 21.7839 16.7431 21.5391C16.5712 21.2891 16.3551 21.0938 16.0947 20.9531C15.8395 20.8073 15.5348 20.7344 15.1806 20.7344C14.7796 20.7344 14.4046 20.8333 14.0556 21.0312C13.7119 21.224 13.428 21.4792 13.2041 21.7969C12.9853 22.1094 12.8603 22.4505 12.8291 22.8203L12.0634 22.8125C12.1364 22.2292 12.2718 21.7318 12.4697 21.3203C12.6728 20.9036 12.9228 20.5651 13.2197 20.3047C13.5218 20.0391 13.8577 19.8464 14.2275 19.7266C14.6025 19.6016 14.9983 19.5391 15.415 19.5391C15.9827 19.5391 16.4723 19.6458 16.8837 19.8594C17.2952 20.0729 17.6337 20.3594 17.8994 20.7188C18.165 21.0729 18.3603 21.474 18.4853 21.9219C18.6155 22.3646 18.6806 22.8203 18.6806 23.2891C18.6806 23.8255 18.6051 24.3281 18.4541 24.7969C18.303 25.2656 18.0765 25.6771 17.7744 26.0312C17.4775 26.3854 17.1103 26.6615 16.6728 26.8594C16.2353 27.0573 15.7275 27.1562 15.1494 27.1562C14.5348 27.1562 13.9983 27.0312 13.54 26.7812C13.0817 26.526 12.7015 26.1875 12.3994 25.7656C12.0973 25.3438 11.8707 24.875 11.7197 24.3594C11.5686 23.8438 11.4931 23.3203 11.4931 22.7891V22.1094C11.4931 21.3073 11.5739 20.5208 11.7353 19.75C11.8968 18.9792 12.1754 18.2812 12.5712 17.6562C12.9723 17.0312 13.527 16.5339 14.2353 16.1641C14.9436 15.7943 15.8473 15.6094 16.9462 15.6094ZM23.3984 21.5703V22.7578H19.5859V21.5703H23.3984ZM31.8428 15.625V16.4375L27.1319 27H25.6084L30.3116 16.8125H24.1553V15.625H31.8428Z" fill="#F06100"/>
</svg>
