<svg width="28" height="44" viewBox="0 0 28 44" fill="none" xmlns="http://www.w3.org/2000/svg">
<path d="M25.2833 27.0413C26.1657 22.6581 26.6857 18.2109 26.8382 13.7438C26.8744 10.346 26.6357 6.51803 24.307 3.78685C23.4189 2.77719 22.3292 1.96098 21.1069 1.38972C19.8845 0.818467 18.5559 0.504583 17.205 0.467863C13.1043 -0.729268 9.89327 0.467864 6.5954 2.95532C5.18271 3.9709 4.01791 5.2877 3.18681 6.80871C2.35571 8.32972 1.87949 10.0162 1.79324 11.7438C1.36654 16.7617 2.0319 22.0162 2.87083 26.9983C1.74985 27.07 0.433594 27.2922 0.0864499 28.2026C-0.0660777 28.9357 -0.0161073 29.696 0.231091 30.4033C0.549306 31.1202 1.25083 31.0771 1.6052 31.6219C2.14038 32.4463 1.6052 34.8406 1.53288 35.7008C1.35815 36.9767 1.33146 38.2683 1.45333 39.5502C1.6269 41.1416 1.8294 43.4284 3.70976 43.8513C9.33639 45.1846 7.48495 37.1846 6.74004 34.4821C6.58817 33.923 6.35674 33.3782 6.26272 32.8119C5.90834 30.7546 6.21209 31.3782 6.84129 30.1811C7.18597 29.6237 7.29755 28.955 7.15227 28.3173C6.87745 26.475 5.61906 26.8836 3.97735 26.9194H3.8761C3.341 23.8284 2.98124 20.71 2.79851 17.5789C2.65387 14.7833 2.4369 11.708 3.25414 8.97681C3.25414 8.89795 3.31923 8.8191 3.34092 8.74025C2.56242 11.7398 2.81696 14.9112 4.06414 17.751C6.65326 23.4857 13.3792 24.647 18.8467 22.3388C21.4503 21.2349 23.9092 19.6721 24.8205 16.9051C25.8402 13.8657 25.9921 9.80835 24.6903 6.86928C24.0539 5.46584 23.1304 4.20872 21.9782 3.17754C23.1041 3.90225 24.0112 4.91532 24.6035 6.10943C26.0933 9.17752 25.9342 12.8263 25.7389 16.1453C25.4701 19.7687 24.9871 23.3735 24.2925 26.9409C22.9329 26.8191 21.443 26.7617 21.0091 28.1811C20.7783 28.8797 20.7783 29.633 21.0091 30.3316C21.5154 31.3495 21.9782 30.8693 22.0216 32.1166C22.1229 34.8334 18.1958 43.414 23.3089 43.88C28.2702 44.3388 27.0986 37.4284 26.6647 34.3675C26.5417 33.4929 26.2307 32.2169 26.7442 31.3925C26.9395 31.07 27.3879 30.9194 27.5904 30.604C27.9055 29.9964 28.0432 29.3137 27.9881 28.6327C27.858 27.0628 26.6068 27.1632 25.2833 27.0413ZM6.05299 27.9804C6.7762 28.561 5.82156 29.7223 5.57566 30.2026C5.07664 31.1631 4.92477 31.1416 5.1128 32.3531C5.45272 34.5036 6.13977 36.5395 6.42183 38.7259C6.55924 39.7366 7.03656 41.156 6.37843 42.0879C6.07554 42.4927 5.63098 42.7709 5.13194 42.8677C4.63289 42.9645 4.11536 42.873 3.68084 42.6112C1.97404 41.6865 2.2344 38.2241 2.42967 36.4965C2.56708 34.9983 3.09503 33.0628 2.59601 31.5646C2.30672 30.7044 2.19101 31.1201 1.61967 30.4607C-0.137748 28.432 2.34288 28.0377 3.95566 27.9517C4.44021 27.9374 5.63352 27.665 6.05299 27.9804ZM14.9124 1.50729C15.9934 1.64967 17.0423 1.97201 18.015 2.46069C21.2188 4.06642 23.0775 6.61122 22.781 10.2671C22.5423 13.5718 21.0019 17.027 17.5738 18.0807C14.681 18.9696 10.1247 18.8549 8.36005 16.0162C6.91361 13.6435 7.01486 9.8872 7.92612 7.37107C8.44715 5.85904 9.37196 4.51528 10.6022 3.48274C11.8323 2.45021 13.3219 1.76751 14.9124 1.50729ZM24.0394 15.9732C22.5929 21.4642 15.4693 23.1417 10.5225 22.0736C4.73673 20.8406 2.97208 13.8155 4.36789 8.75459C4.82349 7.0315 5.74101 5.46272 7.02317 4.21457C8.30533 2.96643 9.90434 2.08543 11.6507 1.66499C10.2683 2.36894 9.08498 3.4038 8.20817 4.67574C4.89584 9.46426 5.40933 18.2241 12.1786 19.3782C15.2017 19.8944 18.7816 19.4499 21.0163 17.2277C23.2511 15.0055 24.1189 11.2922 23.7501 8.22412C23.7056 7.8925 23.638 7.56436 23.5476 7.24204C24.691 10.0162 24.8642 13.0901 24.0394 15.9732ZM26.209 30.5108C25.4424 31.5646 25.3773 31.7295 25.4858 33.2277C25.6449 35.0556 27.3372 43.6147 23.4753 42.8836C19.7796 42.1667 22.9184 34.4535 23.0196 32.1309C23.0988 31.5764 22.9757 31.0121 22.6725 30.5395C22.3688 29.9302 21.2261 28.9338 22.1084 28.0951C22.4989 27.708 24.4299 27.9875 25.0013 28.0305C27.019 28.2814 27.2866 28.9696 26.1729 30.4822L26.209 30.5108Z" fill="#081761"/>
</svg>
