<svg width="42" height="42" viewBox="0 0 42 42" fill="none" xmlns="http://www.w3.org/2000/svg">
<circle cx="21" cy="21" r="19.5" stroke="#D9D9D9" stroke-width="3"/>
<path d="M24.0859 19.4062V21.1406C24.0859 22.0729 24.0026 22.8594 23.8359 23.5C23.6693 24.1406 23.4297 24.6562 23.1172 25.0469C22.8047 25.4375 22.4271 25.7214 21.9844 25.8984C21.5469 26.0703 21.0521 26.1562 20.5 26.1562C20.0625 26.1562 19.6589 26.1016 19.2891 25.9922C18.9193 25.8828 18.5859 25.7083 18.2891 25.4688C17.9974 25.224 17.7474 24.9062 17.5391 24.5156C17.3307 24.125 17.1719 23.651 17.0625 23.0938C16.9531 22.5365 16.8984 21.8854 16.8984 21.1406V19.4062C16.8984 18.474 16.9818 17.6927 17.1484 17.0625C17.3203 16.4323 17.5625 15.9271 17.875 15.5469C18.1875 15.1615 18.5625 14.8854 19 14.7188C19.4427 14.5521 19.9375 14.4688 20.4844 14.4688C20.9271 14.4688 21.3333 14.5234 21.7031 14.6328C22.0781 14.737 22.4115 14.9062 22.7031 15.1406C22.9948 15.3698 23.2422 15.6771 23.4453 16.0625C23.6536 16.4427 23.8125 16.9089 23.9219 17.4609C24.0312 18.013 24.0859 18.6615 24.0859 19.4062ZM22.6328 21.375V19.1641C22.6328 18.6536 22.6016 18.2057 22.5391 17.8203C22.4818 17.4297 22.3958 17.0964 22.2812 16.8203C22.1667 16.5443 22.0208 16.3203 21.8438 16.1484C21.6719 15.9766 21.4714 15.8516 21.2422 15.7734C21.0182 15.6901 20.7656 15.6484 20.4844 15.6484C20.1406 15.6484 19.8359 15.7135 19.5703 15.8438C19.3047 15.9688 19.0807 16.1693 18.8984 16.4453C18.7214 16.7214 18.5859 17.0833 18.4922 17.5312C18.3984 17.9792 18.3516 18.5234 18.3516 19.1641V21.375C18.3516 21.8854 18.3802 22.3359 18.4375 22.7266C18.5 23.1172 18.5911 23.4557 18.7109 23.7422C18.8307 24.0234 18.9766 24.2552 19.1484 24.4375C19.3203 24.6198 19.5182 24.7552 19.7422 24.8438C19.9714 24.9271 20.224 24.9688 20.5 24.9688C20.8542 24.9688 21.1641 24.901 21.4297 24.7656C21.6953 24.6302 21.9167 24.4193 22.0938 24.1328C22.276 23.8411 22.4115 23.4688 22.5 23.0156C22.5885 22.5573 22.6328 22.0104 22.6328 21.375Z" fill="#F06100"/>
</svg>
