<svg width="43" height="44" viewBox="0 0 43 44" fill="none" xmlns="http://www.w3.org/2000/svg">
<circle cx="22" cy="22" r="19.5" stroke="#D9D9D9" stroke-width="3"/>
<path d="M21.9167 2C18.6414 2 15.4166 2.81114 12.5281 4.36157C9.63948 5.91201 7.17625 8.15387 5.35658 10.8886C3.53691 13.6233 2.41695 16.7665 2.09591 20.0397C1.77487 23.3128 2.26266 26.615 3.51608 29.6537C4.76949 32.6923 6.74983 35.3737 9.2817 37.4602C11.8136 39.5467 14.8188 40.974 18.0312 41.6157C21.2436 42.2574 24.564 42.0936 27.6983 41.1388C30.8326 40.1841 33.684 38.4678 36 36.1421" stroke="#081761" stroke-width="3" stroke-linecap="round"/>
<path d="M19.0869 23.1719V24.3594H10.8681V23.5078L15.9619 15.625H17.1416L15.8759 17.9062L12.5087 23.1719H19.0869ZM17.5009 15.625V27H16.0556V15.625H17.5009ZM23.3984 21.5703V22.7578H19.5859V21.5703H23.3984ZM26.3194 21.5859L25.1631 21.2891L25.7334 15.625H31.5694V16.9609H26.96L26.6163 20.0547C26.8246 19.9349 27.0876 19.8229 27.4053 19.7188C27.7282 19.6146 28.098 19.5625 28.5147 19.5625C29.0407 19.5625 29.5121 19.6536 29.9288 19.8359C30.3454 20.013 30.6996 20.2682 30.9913 20.6016C31.2881 20.9349 31.5147 21.3359 31.6709 21.8047C31.8272 22.2734 31.9053 22.7969 31.9053 23.375C31.9053 23.9219 31.8298 24.4245 31.6788 24.8828C31.5329 25.3411 31.3116 25.7422 31.0147 26.0859C30.7178 26.4245 30.3428 26.6875 29.8897 26.875C29.4418 27.0625 28.9131 27.1562 28.3038 27.1562C27.8454 27.1562 27.4105 27.0938 26.9991 26.9688C26.5928 26.8385 26.2282 26.6432 25.9053 26.3828C25.5876 26.1172 25.3272 25.7891 25.1241 25.3984C24.9261 25.0026 24.8011 24.5391 24.7491 24.0078H26.1241C26.1866 24.4349 26.3116 24.7943 26.4991 25.0859C26.6866 25.3776 26.9314 25.599 27.2334 25.75C27.5407 25.8958 27.8975 25.9688 28.3038 25.9688C28.6475 25.9688 28.9522 25.9089 29.2178 25.7891C29.4834 25.6693 29.7074 25.4974 29.8897 25.2734C30.072 25.0495 30.21 24.7786 30.3038 24.4609C30.4027 24.1432 30.4522 23.7865 30.4522 23.3906C30.4522 23.0312 30.4027 22.6979 30.3038 22.3906C30.2048 22.0833 30.0564 21.8151 29.8584 21.5859C29.6657 21.3568 29.4288 21.1797 29.1475 21.0547C28.8663 20.9245 28.5433 20.8594 28.1788 20.8594C27.6944 20.8594 27.3272 20.9245 27.0772 21.0547C26.8324 21.1849 26.5798 21.362 26.3194 21.5859Z" fill="#F06100"/>
</svg>
