<svg width="43" height="44" viewBox="0 0 43 44" fill="none" xmlns="http://www.w3.org/2000/svg">
<circle cx="22" cy="22" r="19.5" stroke="#D9D9D9" stroke-width="3"/>
<path d="M21.9167 2C18.6414 2 15.4166 2.81114 12.5281 4.36157C9.63948 5.91201 7.17625 8.15387 5.35658 10.8886C3.53691 13.6233 2.41695 16.7665 2.09591 20.0397C1.77487 23.3128 2.26266 26.615 3.51608 29.6537C4.76949 32.6923 6.74983 35.3737 9.2817 37.4602C11.8136 39.5467 14.8188 40.974 18.0312 41.6157C21.2436 42.2574 24.564 42.0936 27.6983 41.1388C30.8326 40.1841 33.684 38.4678 36 36.1421" stroke="#081761" stroke-width="3" stroke-linecap="round"/>
<path d="M16.1494 15.5625V27H14.7041V17.3672L11.79 18.4297V17.125L15.9228 15.5625H16.1494ZM23.3984 21.5703V22.7578H19.5859V21.5703H23.3984ZM26.6006 20.6016H27.6319C28.1371 20.6016 28.5538 20.5182 28.8819 20.3516C29.2152 20.1797 29.4626 19.9479 29.6241 19.6562C29.7907 19.3594 29.8741 19.026 29.8741 18.6562C29.8741 18.2188 29.8011 17.8516 29.6553 17.5547C29.5095 17.2578 29.2907 17.0339 28.9991 16.8828C28.7074 16.7318 28.3376 16.6562 27.8897 16.6562C27.4834 16.6562 27.1241 16.737 26.8116 16.8984C26.5043 17.0547 26.2621 17.2786 26.085 17.5703C25.9131 17.862 25.8272 18.2057 25.8272 18.6016H24.3819C24.3819 18.0234 24.5277 17.4974 24.8194 17.0234C25.111 16.5495 25.5199 16.1719 26.0459 15.8906C26.5772 15.6094 27.1918 15.4688 27.8897 15.4688C28.5772 15.4688 29.1788 15.5911 29.6944 15.8359C30.21 16.0755 30.611 16.4349 30.8975 16.9141C31.184 17.388 31.3272 17.9792 31.3272 18.6875C31.3272 18.974 31.2595 19.2812 31.1241 19.6094C30.9939 19.9323 30.7881 20.2344 30.5069 20.5156C30.2308 20.7969 29.8715 21.0286 29.4288 21.2109C28.986 21.388 28.4548 21.4766 27.835 21.4766H26.6006V20.6016ZM26.6006 21.7891V20.9219H27.835C28.559 20.9219 29.1579 21.0078 29.6319 21.1797C30.1058 21.3516 30.4782 21.5807 30.7491 21.8672C31.0251 22.1536 31.2178 22.4688 31.3272 22.8125C31.4418 23.151 31.4991 23.4896 31.4991 23.8281C31.4991 24.3594 31.4079 24.8307 31.2256 25.2422C31.0485 25.6536 30.7959 26.0026 30.4678 26.2891C30.1449 26.5755 29.7647 26.7917 29.3272 26.9375C28.8897 27.0833 28.4131 27.1562 27.8975 27.1562C27.4027 27.1562 26.9366 27.0859 26.4991 26.9453C26.0668 26.8047 25.684 26.6016 25.3506 26.3359C25.0173 26.0651 24.7569 25.7344 24.5694 25.3438C24.3819 24.9479 24.2881 24.4974 24.2881 23.9922H25.7334C25.7334 24.388 25.8194 24.7344 25.9913 25.0312C26.1683 25.3281 26.4183 25.5599 26.7413 25.7266C27.0694 25.888 27.4548 25.9688 27.8975 25.9688C28.3402 25.9688 28.7204 25.8932 29.0381 25.7422C29.361 25.5859 29.6084 25.3516 29.7803 25.0391C29.9574 24.7266 30.0459 24.3333 30.0459 23.8594C30.0459 23.3854 29.947 22.9974 29.7491 22.6953C29.5511 22.388 29.2699 22.1615 28.9053 22.0156C28.5459 21.8646 28.1215 21.7891 27.6319 21.7891H26.6006Z" fill="#F06100"/>
</svg>
