<svg width="42" height="40" viewBox="0 0 42 40" fill="none" xmlns="http://www.w3.org/2000/svg">
<path d="M38.9467 6.07126C38.6969 5.76958 38.3896 5.52497 38.1388 5.23356C37.9123 4.84865 37.5687 4.54647 37.1573 4.3702C36.4172 4.20137 35.8236 4.7964 35.2901 5.2569C34.6426 4.47477 33.9611 3.72072 33.309 2.933C32.8465 2.37433 32.2781 1.31952 31.5468 1.11522C30.3293 0.795549 28.8239 2.21133 27.8397 2.97908C27.7287 2.845 27.6177 2.71092 27.5113 2.58243C25.6561 0.70983 24.2844 1.30877 22.3087 2.91615C20.1377 4.71346 20.1875 5.92454 21.7795 8.14682C23.0483 9.9211 24.3906 11.6345 25.7324 13.3013C23.802 15.182 21.3925 16.7718 19.3351 18.5222C17.5486 20.0012 15.7564 21.485 14.0531 23.0646C12.6656 21.3886 11.2426 19.8078 9.7641 18.2636C7.89195 16.3015 6.6837 15.993 4.52659 17.8071C3.01143 19.0615 1.57695 20.4939 2.78973 22.3616C3.00556 22.6914 3.23271 23.0118 3.4655 23.3275C2.5157 24.1138 0.989234 25.274 1.00407 26.4198C1.03379 27.8829 3.29036 29.9411 4.12544 30.9728L4.21794 31.0845C3.73649 31.3856 3.32228 31.783 3.0019 32.2513C2.58505 33.0484 3.7059 33.9189 4.15556 34.4505C4.60522 34.9821 5.16123 36.0566 5.98253 35.6215C6.41329 35.3836 6.81462 35.0956 7.178 34.7636C8.19126 36.0481 9.35868 37.2031 10.6546 38.2033C12.2107 39.3348 13.5969 38.1778 14.9769 37.0825C15.1295 37.2668 15.2821 37.4512 15.4676 37.6177C17.1291 39.3023 18.2326 38.5865 19.8783 37.2712C20.9129 36.4146 22.851 35.4409 22.6095 33.9178C22.4616 33.014 21.5047 32.0077 20.9759 31.3345C19.8242 29.8398 18.6058 28.3911 17.3637 26.9713L17.0769 26.6249C20.908 23.3685 24.9765 20.3298 28.6668 16.9263C29.7444 18.228 30.8174 19.5241 31.9043 20.837C32.5981 21.675 33.3571 22.845 34.2945 23.4248C35.8969 24.4051 37.281 22.7507 38.4837 21.7174C39.8688 20.5707 41.0766 19.6932 40.0617 17.8687C39.8523 17.4802 39.612 17.1092 39.3433 16.7593C40.6323 15.6921 42.0457 14.522 41.2569 12.8211C40.5411 11.4239 39.6339 10.1344 38.5611 8.98925C39.0431 8.67412 39.4418 8.24699 39.7226 7.74513C40.012 7.08185 39.3599 6.50128 38.9467 6.07126ZM5.64699 34.6752C5.32066 34.3616 5.03648 33.9378 4.75897 33.6026C4.58322 33.3903 4.41209 33.1836 4.24096 32.9769C4.19471 32.921 4.02821 32.6163 3.95883 32.6361C4.12433 32.4759 4.30202 32.3288 4.49027 32.1961C4.6203 32.0884 4.75033 31.9808 4.87471 31.8778C5.43434 32.5538 5.97753 33.2905 6.55824 34.0149C6.28124 34.2698 5.97536 34.4915 5.64699 34.6752ZM10.8068 36.9945C10.1926 36.4434 9.6268 35.8408 9.11552 35.1933C7.64318 33.5875 6.25667 32.0048 4.89895 30.3418C3.98245 29.3716 3.1733 28.3055 2.48519 27.1615C1.83155 25.8195 3.03369 25.0503 4.07241 24.1527C5.54164 25.9964 7.25706 27.7117 8.7078 29.5331C10.5126 31.8052 12.2984 34.2154 14.2435 36.3808C13.0007 37.4002 12.2848 38.0777 10.8021 36.9889L10.8068 36.9945ZM20.595 32.6008C21.2368 33.4912 21.8268 34.0197 21.1118 34.9976C20.5758 35.5402 19.9867 36.0279 19.3536 36.4532C18.9147 36.8782 18.3452 37.1424 17.7394 37.202C17.1337 37.2617 16.5282 37.1131 16.0232 36.7811C15.2334 36.2298 14.5715 34.97 13.9281 34.2504C12.448 32.4626 10.9228 30.7123 9.48799 28.8872C8.51209 27.7084 7.5362 26.5296 6.52638 25.3789C5.74937 24.4403 5.04379 23.4615 4.27037 22.5387C2.99847 21.0024 3.73604 19.7986 5.16537 18.6247C5.54747 18.3065 5.99729 18.0803 6.47948 17.9637C6.96167 17.8472 7.46307 17.8435 7.94427 17.953C8.46642 18.1234 9.07024 19.0829 9.46749 19.5167C10.2769 20.3908 11.0524 21.2929 11.8345 22.1802C13.3377 23.8923 14.8249 25.6081 16.2941 27.3483C17.7634 29.0885 19.266 30.7539 20.5903 32.5952L20.595 32.6008ZM16.4011 25.8662C15.8415 25.1902 15.2819 24.5142 14.7176 23.8326C16.443 22.2913 18.2259 20.7964 19.9883 19.2997C22.0632 17.5819 24.4495 15.9641 26.3743 14.0881C26.9385 14.7697 27.4982 15.4457 28.0578 16.1217C24.3064 19.5664 20.2379 22.6051 16.3965 25.8606L16.4011 25.8662ZM29.3345 6.32697C30.2765 7.53384 31.2298 8.73135 32.2283 9.89141C33.6497 11.5393 35.0033 13.2434 36.3909 14.9194C37.9218 16.7686 40.4667 18.6916 37.8305 20.9399C37.3896 21.305 36.7085 22.1513 36.1345 22.3441C34.5171 22.8074 33.9827 21.7245 33.1748 20.7833C31.7534 19.1353 30.4075 17.5096 29.077 15.8335C27.7465 14.1573 26.3004 12.3415 24.937 10.5796C23.458 8.67802 20.2656 5.97285 22.9737 3.73089C24.5793 2.40163 25.6349 2.42218 27.2733 3.87171C28.029 4.62674 28.7171 5.44635 29.3299 6.32138L29.3345 6.32697ZM38.6704 10.9513C39.1773 11.5075 39.6255 12.1145 40.0081 12.7628C40.7511 14.3509 39.8646 14.9719 38.7081 15.9575C38.0236 15.1307 37.2302 14.3564 36.6124 13.5872C35.4099 12.1347 34.2166 10.6934 33.0141 9.24082C31.477 7.45324 30.09 5.51317 28.5314 3.73404C29.0093 3.31516 29.5328 2.95127 30.0918 2.64938C31.1726 2.15944 31.2589 2.2292 32.1634 3.13757C33.2791 4.26653 34.2262 5.62921 35.274 6.81434C36.4242 8.16903 37.5686 9.5284 38.6658 10.9458L38.6704 10.9513ZM37.8904 8.17918C37.2552 7.481 36.6236 6.79867 36.0722 6.14412C36.0399 6.10502 36.0029 6.06033 35.9659 6.01563L36.5312 5.54758C36.7969 5.3276 36.761 5.27264 37.0112 5.41382C37.2073 5.5986 37.3797 5.80685 37.5246 6.03394C37.7096 6.2574 37.9296 6.44252 38.1315 6.65195C38.3335 6.86137 38.4276 7.00949 38.5941 7.21061C38.6403 7.27573 38.6913 7.33734 38.7467 7.39497C38.7247 7.42159 38.6978 7.44383 38.6675 7.46049C38.3987 7.71128 38.1459 7.95829 37.8904 8.17918Z" fill="#081761" stroke="#081761"/>
</svg>
